# xmcd
#
# Track frame offsets:
#	150
#	7065
#	24032
#	37277
#	54820
#	62865
#
# Disc length: 1067 seconds
#
# Revision: 1
# Processed by: cddbd v1.5.1PL0 Copyright (c) Steve Scherf et al.
# Submitted via: CDex 1.50Beta5
#
DISCID=45042906
DTITLE=富沢美智恵 - みつめていいよ 夏休み特刊号 未来ディスク
DYEAR=1900
DGENRE=Anime
TTITLE0=HOW ARE YOU?
TTITLE1=ANGEL 離さない
TTITLE2=KYAPI  ON THE PHONE(1)
TTITLE3=TO DREAM OF L.A.
TTITLE4=KYAPI  ON THE PHONE(2)
TTITLE5=LADY IN THE MOONLIGHT
EXTD=
EXTT0=
EXTT1=
EXTT2=
EXTT3=
EXTT4=
EXTT5=
PLAYORDER=
